<svg width="43" height="35" viewBox="0 0 43 35" fill="none" xmlns="http://www.w3.org/2000/svg">
<path d="M6.45 15.3125C8.82172 15.3125 10.75 13.3506 10.75 10.9375C10.75 8.52441 8.82172 6.5625 6.45 6.5625C4.07828 6.5625 2.15 8.52441 2.15 10.9375C2.15 13.3506 4.07828 15.3125 6.45 15.3125ZM36.55 15.3125C38.9217 15.3125 40.85 13.3506 40.85 10.9375C40.85 8.52441 38.9217 6.5625 36.55 6.5625C34.1783 6.5625 32.25 8.52441 32.25 10.9375C32.25 13.3506 34.1783 15.3125 36.55 15.3125ZM38.7 17.5H34.4C33.2175 17.5 32.1492 17.9854 31.3698 18.7715C34.0775 20.2822 35.9991 23.0098 36.4156 26.25H40.85C42.0392 26.25 43 25.2725 43 24.0625V21.875C43 19.4619 41.0717 17.5 38.7 17.5ZM21.5 17.5C25.6589 17.5 29.025 14.0752 29.025 9.84375C29.025 5.6123 25.6589 2.1875 21.5 2.1875C17.3411 2.1875 13.975 5.6123 13.975 9.84375C13.975 14.0752 17.3411 17.5 21.5 17.5ZM26.66 19.6875H26.1023C24.7048 20.3711 23.1528 20.7812 21.5 20.7812C19.8472 20.7812 18.3019 20.3711 16.8977 19.6875H16.34C12.0669 19.6875 8.6 23.2148 8.6 27.5625V29.5312C8.6 31.3428 10.0445 32.8125 11.825 32.8125H31.175C32.9555 32.8125 34.4 31.3428 34.4 29.5312V27.5625C34.4 23.2148 30.9331 19.6875 26.66 19.6875ZM11.6302 18.7715C10.8508 17.9854 9.7825 17.5 8.6 17.5H4.3C1.92828 17.5 0 19.4619 0 21.875V24.0625C0 25.2725 0.960781 26.25 2.15 26.25H6.57766C7.00094 23.0098 8.9225 20.2822 11.6302 18.7715Z" fill="url(#paint0_linear)"/>
<defs>
<linearGradient id="paint0_linear" x1="21.5" y1="2.1875" x2="21.5" y2="32.8125" gradientUnits="userSpaceOnUse">
<stop stop-color="#2F404A"/>
<stop offset="1" stop-color="#1F5879"/>
</linearGradient>
</defs>
</svg>
