<svg width="40" height="34" viewBox="0 0 40 34" fill="none" xmlns="http://www.w3.org/2000/svg">
<path d="M1.8667 33.6506V28.7584C1.8667 25.7173 4.40003 23.2051 7.4667 23.2051H13.9334C17 23.2051 19.5334 25.7173 19.5334 28.7584V33.5845L1.8667 33.6506Z" fill="url(#paint0_linear)"/>
<path d="M10.7335 21.4862C13.679 21.4862 16.0668 19.1183 16.0668 16.1973C16.0668 13.2764 13.679 10.9084 10.7335 10.9084C7.78796 10.9084 5.40015 13.2764 5.40015 16.1973C5.40015 19.1183 7.78796 21.4862 10.7335 21.4862Z" fill="url(#paint1_linear)"/>
<path d="M17.6667 23.1392C18.9334 23.1392 21.8001 23.1392 21.8001 23.1392C24.0001 23.1392 25.2001 25.5192 25.1334 26.4447V32.3286C25.1334 32.3286 22.0667 32.3286 20.8667 32.3286C20.8001 27.7669 21.4667 25.3208 17.6667 23.1392Z" fill="url(#paint2_linear)"/>
<path d="M22.6668 17.9163C22.6668 20.1641 20.8001 22.0152 18.5335 22.0152C17.3335 22.0152 16.2001 21.4863 15.4668 20.6268C17.2001 19.1724 17.9335 16.3957 16.6668 14.2802C17.2001 14.0157 17.8668 13.8174 18.5335 13.8174C20.8668 13.8174 22.6668 15.6024 22.6668 17.9163Z" fill="url(#paint3_linear)"/>
<path d="M34.8666 12.4289C34.5333 12.495 34.2666 12.2306 34.2666 11.9661V7.27223H17.1999C17.1999 7.27223 17.1999 6.61112 17.1999 6.28056C17.1999 5.8839 17.2666 5.68556 17.7333 5.68556H37.5333C37.9333 5.68556 37.9999 5.75167 37.9999 6.14834C37.9999 7.0739 37.9999 8.46223 37.9999 9.32167L35.0666 7.27223V10.71C35.0666 11.1067 35.3999 11.305 35.6666 11.1728C35.6666 11.1728 39.0666 10.2472 39.0666 10.1811C39.0666 10.1811 39.0666 6.87556 39.0666 5.42112C39.0666 4.76001 38.8666 4.56167 38.1999 4.56167H23.9333C23.7333 4.56167 23.4666 4.56167 23.3999 4.36334C23.1999 4.0989 22.9999 3.90056 22.8666 3.63612C22.5999 3.37167 22.3999 3.17334 21.9999 3.17334H16.9333C16.4666 3.17334 16.2666 3.37167 16.2666 3.76834V11.6356C16.7333 11.5033 17.3333 11.4372 17.8666 11.4372C21.1999 11.4372 23.1333 13.4867 24.0666 15.8006C24.1999 16.065 24.2666 16.3295 24.3333 16.5939C24.5999 17.5195 24.5999 18.3789 24.4666 19.3045C24.3333 20.1639 24.1333 20.9572 23.7333 21.7506C23.6666 21.8828 23.5999 21.9489 23.5999 22.0811C23.5333 22.1472 23.4666 22.2133 23.4666 22.3456H38.7333C39.0666 22.3456 39.1999 22.1472 39.1999 21.8828L39.2666 11.1728L34.8666 12.4289ZM24.3999 15.0072C24.3333 15.0733 24.1999 15.0733 24.1333 15.0733C23.9333 15.0733 23.8666 15.0072 23.7999 14.875C23.7333 14.7428 23.7333 14.6767 23.7333 14.6106C23.7333 14.4122 23.7999 14.3461 23.9333 14.28L24.3999 13.8172L23.9333 13.3545C23.8666 13.2883 23.8666 13.1561 23.8666 13.09C23.8666 12.8917 23.9333 12.8256 24.0666 12.7594C24.2666 12.5611 24.4666 12.5611 24.5999 12.7594L25.0666 13.2222L25.5999 12.7594C25.7999 12.5611 26.0666 12.6272 26.1333 12.8256C26.1999 12.8917 26.1999 13.0239 26.1999 13.09C26.1999 13.2883 26.1333 13.3545 25.9999 13.4206L25.5333 13.8833L25.9333 14.4122C25.9999 14.4783 25.9999 14.6106 25.9999 14.6767C25.9999 14.875 25.9333 14.9411 25.7999 15.0072C25.6666 15.0733 25.5999 15.0733 25.5333 15.0733C25.3333 15.0733 25.2666 15.0072 25.1999 14.875L24.7333 14.4122L24.3999 15.0072ZM28.5333 20.1639C28.5333 21.2878 27.5999 22.2133 26.4666 22.2133C25.3333 22.2133 24.3999 21.2878 24.3999 20.1639C24.3999 19.04 25.3333 18.1145 26.4666 18.1145C26.5333 18.1145 26.5333 18.1145 26.6666 18.1145C28.1999 15.2056 27.9333 11.2389 24.5999 9.52001C24.0666 10.9083 24.3999 11.9 24.3999 11.9L22.5333 8.39612L26.4666 7.53667C26.4666 7.53667 25.5999 7.80112 24.9333 8.79278C29.1333 10.5778 29.3333 15.5361 27.8666 18.6433C28.2666 18.9078 28.4666 19.4367 28.5333 20.1639ZM29.8666 11.3711C29.6666 11.3711 29.5999 11.305 29.5333 11.1728C29.4666 11.1728 29.4666 10.9745 29.4666 10.9083C29.4666 10.71 29.5333 10.6439 29.6666 10.5778L30.1333 10.115L29.6666 9.65223C29.5999 9.65223 29.5999 9.4539 29.5999 9.38778C29.5999 9.18945 29.6666 9.12334 29.7999 9.05723C29.9999 8.8589 30.1999 8.8589 30.3333 9.05723L30.7999 9.52001L31.2666 9.05723C31.4666 8.8589 31.6666 8.8589 31.7999 9.05723C31.8666 9.05723 31.8666 9.25556 31.8666 9.32167C31.8666 9.52001 31.7999 9.58612 31.6666 9.65223L31.1999 10.115L31.6666 10.71C31.7333 10.71 31.7333 10.9083 31.7333 10.9745C31.7333 11.1728 31.6666 11.2389 31.5333 11.305C31.5333 11.3711 31.3333 11.3711 31.2666 11.3711C31.0666 11.3711 30.9999 11.305 30.9333 11.1728L30.4666 10.71L29.9999 11.1728C30.0666 11.3711 29.9333 11.3711 29.8666 11.3711ZM31.9333 19.3045C30.9999 19.3045 30.1999 18.5111 30.1999 17.5856C30.1999 16.66 30.9999 15.8667 31.9333 15.8667H32.1999C32.5999 15.3378 32.7999 14.7428 32.7333 14.3461C32.7333 13.7511 32.3999 13.2222 32.0666 12.9578C31.5333 13.7511 31.6666 14.3461 31.6666 14.3461L31.0666 11.9661H33.4666C33.4666 11.9661 32.8666 12.0322 32.2666 12.5611C33.6666 13.4206 33.4666 15.1395 32.8666 16.1311C33.3333 16.4617 33.6666 16.9906 33.6666 17.5195C33.5999 18.5111 32.8666 19.3045 31.9333 19.3045Z" fill="url(#paint4_linear)"/>
<defs>
<linearGradient id="paint0_linear" x1="10.7" y1="23.2051" x2="10.7" y2="33.6506" gradientUnits="userSpaceOnUse">
<stop stop-color="#2F404A"/>
<stop offset="1" stop-color="#1F5879"/>
</linearGradient>
<linearGradient id="paint1_linear" x1="10.7335" y1="10.9084" x2="10.7335" y2="21.4862" gradientUnits="userSpaceOnUse">
<stop stop-color="#2F404A"/>
<stop offset="1" stop-color="#1F5879"/>
</linearGradient>
<linearGradient id="paint2_linear" x1="21.4014" y1="23.1392" x2="21.4014" y2="32.3286" gradientUnits="userSpaceOnUse">
<stop stop-color="#2F404A"/>
<stop offset="1" stop-color="#1F5879"/>
</linearGradient>
<linearGradient id="paint3_linear" x1="19.0668" y1="13.8174" x2="19.0668" y2="22.0152" gradientUnits="userSpaceOnUse">
<stop stop-color="#2F404A"/>
<stop offset="1" stop-color="#1F5879"/>
</linearGradient>
<linearGradient id="paint4_linear" x1="27.7666" y1="3.17334" x2="27.7666" y2="22.3456" gradientUnits="userSpaceOnUse">
<stop stop-color="#2F404A"/>
<stop offset="1" stop-color="#1F5879"/>
</linearGradient>
</defs>
</svg>
