<svg width="36" height="31" viewBox="0 0 36 31" fill="none" xmlns="http://www.w3.org/2000/svg">
<g clip-path="url(#clip0)">
<path d="M22 17.4314H10.1438L4.96875 21.1914C4.87851 21.2566 4.7713 21.2962 4.65914 21.3057C4.54698 21.3152 4.4343 21.2943 4.33373 21.2453C4.23316 21.1963 4.14866 21.1211 4.08972 21.0281C4.03078 20.9352 3.99971 20.8282 4 20.7191V17.4375C2.93944 17.4365 1.9226 17.028 1.17267 16.3015C0.422739 15.575 0.000992881 14.5899 0 13.5625L0 3.875C0.000992881 2.84758 0.422739 1.86252 1.17267 1.13602C1.9226 0.409528 2.93944 0.000961853 4 0H22C23.0606 0.000961853 24.0774 0.409528 24.8273 1.13602C25.5773 1.86252 25.999 2.84758 26 3.875V13.5625C25.9999 14.0711 25.8964 14.5746 25.6952 15.0444C25.4941 15.5141 25.1994 15.9409 24.8279 16.3002C24.4564 16.6596 24.0154 16.9444 23.5302 17.1385C23.0449 17.3326 22.525 17.4322 22 17.4314Z" fill="url(#paint0_linear)"/>
<path d="M36 13.5625V23.25C35.999 24.2774 35.5773 25.2625 34.8273 25.989C34.0774 26.7155 33.0606 27.124 32 27.125H30V30.4127C30.0003 30.5218 29.9692 30.6288 29.9103 30.7217C29.8513 30.8146 29.7668 30.8898 29.6663 30.9388C29.5657 30.9879 29.453 31.0088 29.3409 30.9993C29.2287 30.9898 29.1215 30.9502 29.0312 30.885L23.8563 27.125H16C14.9394 27.124 13.9226 26.7155 13.1727 25.989C12.4227 25.2625 12.001 24.2774 12 23.25V19.375H22C23.5905 19.3726 25.1152 18.7594 26.2399 17.6699C27.3646 16.5804 27.9975 15.1033 28 13.5625V9.6875H32C33.0606 9.68846 34.0774 10.097 34.8273 10.8235C35.5773 11.55 35.999 12.5351 36 13.5625Z" fill="url(#paint1_linear)"/>
</g>
<defs>
<linearGradient id="paint0_linear" x1="13" y1="0" x2="13" y2="21.308" gradientUnits="userSpaceOnUse">
<stop stop-color="#2F404A"/>
<stop offset="1" stop-color="#1F5879"/>
</linearGradient>
<linearGradient id="paint1_linear" x1="24" y1="9.6875" x2="24" y2="31.0015" gradientUnits="userSpaceOnUse">
<stop stop-color="#2F404A"/>
<stop offset="1" stop-color="#1F5879"/>
</linearGradient>
<clipPath id="clip0">
<rect width="36" height="31" fill="white"/>
</clipPath>
</defs>
</svg>
