<svg width="30" height="32" viewBox="0 0 30 32" fill="none" xmlns="http://www.w3.org/2000/svg">
<g clip-path="url(#clip0)">
<path d="M20.3822 3.47885L16.7793 0V3.47885H20.3822Z" fill="url(#paint0_linear)"/>
<path d="M21.206 14.2788C21.5663 14.2788 21.8751 14.3827 22.1324 14.5904V12.6692V5.86731H21.103V11.7346V14.2788H21.206Z" fill="url(#paint1_linear)"/>
<path d="M14.3603 22.8981H4.94122H2.67651V23.8327H5.97063H14.5662C14.4633 23.5211 14.4118 23.2096 14.3603 22.8981Z" fill="url(#paint2_linear)"/>
<path d="M14.3089 22.0673C14.3089 20.925 14.6177 19.7827 15.2354 18.8481L14.4119 17.7058L17.1398 15.5769L17.8089 16.5635H17.8604C17.8089 16.3558 17.7574 16.2 17.7574 15.9923C17.7574 15.0577 18.5295 14.2788 19.456 14.2788H20.4854V11.0596V4.25769H15.9045V0H0.978027V22.2231H4.32362H14.3089C14.3089 22.1712 14.3089 22.1192 14.3089 22.0673ZM11.7354 19.6788H10.5001V18.1212H11.7354V19.6788ZM11.7354 17.4981H10.5001V15.9404H11.7354V17.4981ZM11.7354 12.6692H8.80156V11.0596H6.2795V12.6692H5.0442V15.9404H6.2795V16.4596H8.80156V15.8885H10.0369V17.4981H8.80156V16.9269H6.2795V18.6923H8.80156V18.1212H10.0369V19.6788H8.80156V19.1077H6.2795V19.6269H3.34567V15.9404H4.58097V12.6692H3.34567V8.98269H4.58097V5.71154H3.34567V2.025H6.2795V3.63462H8.80156C8.80156 2.85577 8.80156 2.025 8.80156 2.025H11.7354V5.71154H8.80156C8.80156 5.71154 8.80156 4.88077 8.80156 4.10192H6.2795V5.71154H5.0442V8.98269H6.2795V10.5923H8.80156V8.98269H11.7354V10.5923H14.3604V8.98269H17.2942V12.6692H14.3604V11.0596H11.7354V12.6692Z" fill="url(#paint3_linear)"/>
<path d="M20.5367 18.4327H20.0735V19.3674H20.5367V18.4327Z" fill="url(#paint4_linear)"/>
<path d="M20.5367 24.6635H20.0735V25.5981H20.5367V24.6635Z" fill="url(#paint5_linear)"/>
<path d="M23.8823 21.8077H22.9558V22.275H23.8823V21.8077Z" fill="url(#paint6_linear)"/>
<path d="M17.7058 21.8077H16.7793V22.275H17.7058V21.8077Z" fill="url(#paint7_linear)"/>
<path d="M20.3309 22.4827C20.5868 22.4827 20.7941 22.2735 20.7941 22.0154C20.7941 21.7573 20.5868 21.5481 20.3309 21.5481C20.0751 21.5481 19.8677 21.7573 19.8677 22.0154C19.8677 22.2735 20.0751 22.4827 20.3309 22.4827Z" fill="url(#paint8_linear)"/>
<path d="M18.1181 20.5526L20.1682 22.2063L20.4896 21.8008L18.4395 20.1471L18.1181 20.5526Z" fill="url(#paint9_linear)"/>
<path d="M24.0881 18.7443L24.7573 17.8097L23.7278 16.9789L23.1617 17.8616C22.4411 17.3943 21.6175 17.0827 20.7425 16.9789V16.4597H21.2058C21.5661 16.4597 21.8234 16.2 21.8234 15.8366C21.8234 15.4731 21.5661 15.2135 21.2058 15.2135H19.4558C19.0955 15.2135 18.8381 15.4731 18.8381 15.8366C18.8381 16.2 19.0955 16.4597 19.4558 16.4597H19.919V16.9789C19.044 17.0308 18.2205 17.3423 17.4999 17.8616L16.8823 17.0308L15.8528 17.8616L16.522 18.7962C15.8014 19.6789 15.3381 20.7693 15.3381 22.0154C15.3381 24.7673 17.5514 27 20.2793 27C23.0073 27 25.2205 24.7673 25.2205 22.0154C25.272 20.7693 24.8602 19.627 24.0881 18.7443ZM20.3308 26.0654C18.0661 26.0654 16.2646 24.2481 16.2646 21.9635C16.2646 19.6789 18.0661 17.8616 20.3308 17.8616C22.5955 17.8616 24.397 19.6789 24.397 21.9635C24.397 24.2481 22.544 26.0654 20.3308 26.0654Z" fill="url(#paint10_linear)"/>
</g>
<g clip-path="url(#clip1)">
<path d="M10.9219 17.1094V27.6562C10.9219 27.9671 11.0453 28.2651 11.2651 28.4849C11.4849 28.7047 11.7829 28.8281 12.0938 28.8281H26.1562C26.4671 28.8281 26.7651 28.7047 26.9849 28.4849C27.2047 28.2651 27.3281 27.9671 27.3281 27.6562V17.1094H10.9219ZM21.4688 20.1855C21.4688 20.3021 21.4225 20.4139 21.34 20.4963C21.2576 20.5787 21.1458 20.625 21.0293 20.625H17.2207C17.1042 20.625 16.9924 20.5787 16.91 20.4963C16.8275 20.4139 16.7812 20.3021 16.7812 20.1855V19.8926C16.7812 19.776 16.8275 19.6643 16.91 19.5818C16.9924 19.4994 17.1042 19.4531 17.2207 19.4531H21.0293C21.1458 19.4531 21.2576 19.4994 21.34 19.5818C21.4225 19.6643 21.4688 19.776 21.4688 19.8926V20.1855Z" fill="white"/>
<path d="M28.5 13.5937V15.3516C28.5 15.507 28.4383 15.656 28.3284 15.7659C28.2185 15.8758 28.0695 15.9375 27.9141 15.9375H10.3359C10.1805 15.9375 10.0315 15.8758 9.92162 15.7659C9.81173 15.656 9.75 15.507 9.75 15.3516V13.5937C9.75 13.2829 9.87347 12.9849 10.0932 12.7651C10.313 12.5453 10.6111 12.4219 10.9219 12.4219H27.3281C27.6389 12.4219 27.937 12.5453 28.1568 12.7651C28.3765 12.9849 28.5 13.2829 28.5 13.5937Z" fill="white"/>
</g>
<g clip-path="url(#clip2)">
<path opacity="0.4" d="M12.4219 18.6094V29.1562C12.4219 29.4671 12.5453 29.7651 12.7651 29.9849C12.9849 30.2047 13.2829 30.3281 13.5938 30.3281H27.6562C27.9671 30.3281 28.2651 30.2047 28.4849 29.9849C28.7047 29.7651 28.8281 29.4671 28.8281 29.1562V18.6094H12.4219ZM22.9688 21.6855C22.9688 21.8021 22.9225 21.9139 22.84 21.9963C22.7576 22.0787 22.6458 22.125 22.5293 22.125H18.7207C18.6042 22.125 18.4924 22.0787 18.41 21.9963C18.3275 21.9139 18.2812 21.8021 18.2812 21.6855V21.3926C18.2812 21.276 18.3275 21.1643 18.41 21.0818C18.4924 20.9994 18.6042 20.9531 18.7207 20.9531H22.5293C22.6458 20.9531 22.7576 20.9994 22.84 21.0818C22.9225 21.1643 22.9688 21.276 22.9688 21.3926V21.6855Z" fill="url(#paint11_linear)"/>
<path d="M30 15.0937V16.8516C30 17.007 29.9383 17.156 29.8284 17.2659C29.7185 17.3758 29.5695 17.4375 29.4141 17.4375H11.8359C11.6805 17.4375 11.5315 17.3758 11.4216 17.2659C11.3117 17.156 11.25 17.007 11.25 16.8516V15.0937C11.25 14.7829 11.3735 14.4849 11.5932 14.2651C11.813 14.0453 12.1111 13.9219 12.4219 13.9219H28.8281C29.1389 13.9219 29.437 14.0453 29.6568 14.2651C29.8765 14.4849 30 14.7829 30 15.0937Z" fill="url(#paint12_linear)"/>
</g>
<defs>
<linearGradient id="paint0_linear" x1="18.5808" y1="0" x2="18.5808" y2="3.47885" gradientUnits="userSpaceOnUse">
<stop stop-color="#2F404A"/>
<stop offset="1" stop-color="#1F5879"/>
</linearGradient>
<linearGradient id="paint1_linear" x1="21.6177" y1="5.86731" x2="21.6177" y2="14.5904" gradientUnits="userSpaceOnUse">
<stop stop-color="#2F404A"/>
<stop offset="1" stop-color="#1F5879"/>
</linearGradient>
<linearGradient id="paint2_linear" x1="8.62137" y1="22.8981" x2="8.62137" y2="23.8327" gradientUnits="userSpaceOnUse">
<stop stop-color="#2F404A"/>
<stop offset="1" stop-color="#1F5879"/>
</linearGradient>
<linearGradient id="paint3_linear" x1="10.7317" y1="0" x2="10.7317" y2="22.2231" gradientUnits="userSpaceOnUse">
<stop stop-color="#2F404A"/>
<stop offset="1" stop-color="#1F5879"/>
</linearGradient>
<linearGradient id="paint4_linear" x1="20.3051" y1="18.4327" x2="20.3051" y2="19.3674" gradientUnits="userSpaceOnUse">
<stop stop-color="#2F404A"/>
<stop offset="1" stop-color="#1F5879"/>
</linearGradient>
<linearGradient id="paint5_linear" x1="20.3051" y1="24.6635" x2="20.3051" y2="25.5981" gradientUnits="userSpaceOnUse">
<stop stop-color="#2F404A"/>
<stop offset="1" stop-color="#1F5879"/>
</linearGradient>
<linearGradient id="paint6_linear" x1="23.419" y1="21.8077" x2="23.419" y2="22.275" gradientUnits="userSpaceOnUse">
<stop stop-color="#2F404A"/>
<stop offset="1" stop-color="#1F5879"/>
</linearGradient>
<linearGradient id="paint7_linear" x1="17.2425" y1="21.8077" x2="17.2425" y2="22.275" gradientUnits="userSpaceOnUse">
<stop stop-color="#2F404A"/>
<stop offset="1" stop-color="#1F5879"/>
</linearGradient>
<linearGradient id="paint8_linear" x1="20.3309" y1="21.5481" x2="20.3309" y2="22.4827" gradientUnits="userSpaceOnUse">
<stop stop-color="#2F404A"/>
<stop offset="1" stop-color="#1F5879"/>
</linearGradient>
<linearGradient id="paint9_linear" x1="19.1432" y1="21.3794" x2="19.468" y2="20.9767" gradientUnits="userSpaceOnUse">
<stop stop-color="#2F404A"/>
<stop offset="1" stop-color="#1F5879"/>
</linearGradient>
<linearGradient id="paint10_linear" x1="20.2815" y1="15.2135" x2="20.2815" y2="27" gradientUnits="userSpaceOnUse">
<stop stop-color="#2F404A"/>
<stop offset="1" stop-color="#1F5879"/>
</linearGradient>
<linearGradient id="paint11_linear" x1="20.625" y1="18.6094" x2="20.625" y2="30.3281" gradientUnits="userSpaceOnUse">
<stop stop-color="#2F404A"/>
<stop offset="1" stop-color="#1F5879"/>
</linearGradient>
<linearGradient id="paint12_linear" x1="20.625" y1="13.9219" x2="20.625" y2="17.4375" gradientUnits="userSpaceOnUse">
<stop stop-color="#2F404A"/>
<stop offset="1" stop-color="#1F5879"/>
</linearGradient>
<clipPath id="clip0">
<rect width="26.25" height="27" fill="white"/>
</clipPath>
<clipPath id="clip1">
<rect width="18.75" height="18.75" fill="white" transform="translate(9.75 11.25)"/>
</clipPath>
<clipPath id="clip2">
<rect width="18.75" height="18.75" fill="white" transform="translate(11.25 12.75)"/>
</clipPath>
</defs>
</svg>
